<?xml version="1.0" encoding="utf-8"?>
<!-- Svg Vector Icons : http://www.onlinewebfonts.com/icon -->
<!DOCTYPE svg PUBLIC "-//W3C//DTD SVG 1.1//EN" "http://www.w3.org/Graphics/SVG/1.1/DTD/svg11.dtd">
<svg version="1.1" xmlns="http://www.w3.org/2000/svg" xmlns:xlink="http://www.w3.org/1999/xlink" x="0px" y="0px" viewBox="0 0 256 256" enable-background="new 0 0 256 256" xml:space="preserve">
<metadata> Svg Vector Icons : http://www.onlinewebfonts.com/icon </metadata>
<g><g><path fill="#000000" d="M146.2,188.3V19.1c0-5-4-9.1-9.2-9.1H119c-5.1,0-9.2,4.1-9.2,9.1v172l-54.2-53.2c-1.8-1.8-4.8-1.8-6.6,0.1l-12.8,12.8c-1.9,1.9-1.9,4.8-0.1,6.6l72.8,71.6c0.3,0.6,0.6,1.1,1.1,1.5l13.9,13.9c1.1,1.1,2.6,1.6,3.9,1.5c1.3,0.1,2.6-0.4,3.7-1.4l10.1-10.1l78.1-75.2c2-2,1.9-5.2-0.1-7.2l-13.9-13.9c-2-2-5.3-2.1-7.2-0.1L146.2,188.3z"/></g></g>
</svg>